<?xml version="1.0" encoding="iso-8859-1"?>
<!-- Generator: Adobe Illustrator 19.0.0, SVG Export Plug-In . SVG Version: 6.00 Build 0)  -->
<svg version="1.1" id="delete" xmlns="http://www.w3.org/2000/svg" xmlns:xlink="http://www.w3.org/1999/xlink" x="0px" y="0px"
	 viewBox="0 0 57 57" style="enable-background:new 0 0 57 57;" xml:space="preserve">
<rect x="0" y="0" style="fill:rgba(0,0,0,0);" width="57" height="57"/>
<path style="fill:#BDC3C7;" d="M49,47H32c-0.553,0-1-0.447-1-1s0.447-1,1-1h17c0.553,0,1,0.447,1,1S49.553,47,49,47z"/>
<path style="fill:#FFFFFF;" d="M46.259,21.341L34.28,9.363c-0.988-0.988-2.59-0.988-3.578,0L7.41,32.655
	c-0.988,0.988-0.988,2.59,0,3.578L17.178,46h8l21.081-21.081C47.247,23.931,47.247,22.329,46.259,21.341z"/>
<path style="fill:#BDC3C7;" d="M46.966,20.634L34.987,8.655c-1.332-1.332-3.659-1.331-4.991,0L6.703,31.947
	c-1.375,1.377-1.375,3.615,0,4.992L16.764,47h8.828l9.726-9.726c0.001-0.001,0.002-0.001,0.003-0.002s0.001-0.002,0.002-0.003
	l11.644-11.644C48.343,24.25,48.342,22.01,46.966,20.634z M24.764,45h-7.172l-9.475-9.475c-0.596-0.597-0.596-1.567,0-2.164
	l10.939-10.939l14.142,14.142L24.764,45z M45.552,24.212L34.613,35.151L20.47,21.009l10.94-10.939c0.577-0.575,1.584-0.577,2.163,0
	l11.979,11.979C46.148,22.645,46.148,23.615,45.552,24.212z"/>
<g>
</g>
<g>
</g>
<g>
</g>
<g>
</g>
<g>
</g>
<g>
</g>
<g>
</g>
<g>
</g>
<g>
</g>
<g>
</g>
<g>
</g>
<g>
</g>
<g>
</g>
<g>
</g>
<g>
</g>
</svg>
