<svg id="price" width="22" height="15" viewBox="0 0 22 15"
	xmlns="http://www.w3.org/2000/svg">
	<path d="M21.352 0.752009C20.0187 0.207254 18.6842 4.02709e-08 17.3505 4.02709e-08C13.1166 -0.000334781 8.88305 2.08728 4.64915 2.08728C3.58732 2.08728 2.52618 1.95603 1.46435 1.6279C1.34507 1.59107 1.22545 1.57366 1.10858 1.57366C0.516992 1.57366 0 2.01964 0 2.63873V13.2613C0 13.6842 0.248527 14.0849 0.647615 14.2477C1.981 14.7927 3.31542 15 4.64915 15C8.88305 15 13.117 12.9124 17.3509 12.9124C18.4127 12.9124 19.4738 13.0436 20.5356 13.3718C20.6549 13.4086 20.7745 13.426 20.8914 13.426C21.483 13.426 22 12.98 22 12.3609V1.73873C21.9997 1.31551 21.7511 0.915067 21.352 0.752009ZM1.64997 3.35558C2.34159 3.52433 3.06345 3.60904 3.80594 3.65458C3.60382 4.63862 2.71558 5.38025 1.64997 5.38025V3.35558ZM1.64997 12.898V11.2982C2.83142 11.2982 3.78738 12.2113 3.83997 13.354C3.06551 13.2934 2.34159 13.1427 1.64997 12.898ZM10.9998 10.7143C9.48082 10.7143 8.24987 9.27489 8.24987 7.5C8.24987 5.72478 9.48116 4.28571 10.9998 4.28571C12.5185 4.28571 13.7498 5.72478 13.7498 7.5C13.7498 9.27556 12.5181 10.7143 10.9998 10.7143ZM20.3497 11.6444C19.7474 11.4974 19.1222 11.4151 18.4825 11.3618C18.6842 10.4886 19.4278 9.82567 20.3497 9.71183V11.6444ZM20.3497 3.73895C19.2879 3.60804 18.4639 2.74453 18.4312 1.67813C19.1029 1.75078 19.7406 1.88672 20.3497 2.10201V3.73895Z"/>
</svg>
