<svg id="rating" width="14" height="13" viewBox="0 0 14 13"
	xmlns="http://www.w3.org/2000/svg">
	<path d="M10.8898 12.9966C10.7776 12.9971 10.667 12.9713 10.5671 12.9214L6.98948 11.0954L3.41183 12.9214C3.29566 12.981 3.16468 13.0076 3.03378 12.9981C2.90288 12.9887 2.77731 12.9437 2.67135 12.8682C2.56539 12.7927 2.48329 12.6897 2.43437 12.571C2.38546 12.4522 2.3717 12.3225 2.39466 12.1965L3.09616 8.34622L0.205981 5.61068C0.115809 5.52295 0.0518417 5.41294 0.020945 5.29246C-0.00995168 5.17198 -0.0066118 5.04556 0.0306063 4.92679C0.0712651 4.80525 0.146056 4.69725 0.246493 4.61505C0.346929 4.53285 0.468989 4.47974 0.598821 4.46175L4.59737 3.89412L6.35813 0.385787C6.41557 0.270162 6.50526 0.172649 6.61692 0.104418C6.72858 0.036188 6.8577 0 6.98948 0C7.12126 0 7.25038 0.036188 7.36204 0.104418C7.4737 0.172649 7.56338 0.270162 7.62083 0.385787L9.40263 3.88728L13.4012 4.45491C13.531 4.4729 13.6531 4.52601 13.7535 4.60821C13.8539 4.69041 13.9287 4.79841 13.9694 4.91995C14.0066 5.03872 14.01 5.16514 13.9791 5.28562C13.9482 5.4061 13.8842 5.51611 13.794 5.60384L10.9038 8.33938L11.6053 12.1897C11.6304 12.3179 11.6173 12.4504 11.5676 12.5716C11.5178 12.6928 11.4336 12.7975 11.3247 12.8735C11.1977 12.9603 11.0448 13.0036 10.8898 12.9966Z"/>
</svg>
