<svg id="searchIcon" width="32" height="32" viewBox="0 0 32 32" xmlns="http://www.w3.org/2000/svg">
<path d="M31.7196 30.2812L22.0292 20.5C23.9611 18.1875 24.927 15.5208 24.927 12.5C24.927 10.2292 24.3713 8.13542 23.26 6.21875C22.1487 4.30208 20.6323 2.78646 18.7108 1.67188C16.7894 0.557292 14.7017 0 12.4479 0C10.1941 0 8.11165 0.557292 6.20058 1.67188C4.28952 2.78646 2.77832 4.30208 1.66699 6.21875C0.555664 8.13542 0 10.2292 0 12.5C0 14.7708 0.555664 16.8646 1.66699 18.7812C2.77832 20.6979 4.28952 22.2135 6.20058 23.3281C8.11165 24.4427 10.1993 25 12.4635 25C15.5586 25 18.2798 23.9792 20.6271 21.9375L30.2863 31.6875C30.494 31.8958 30.7329 32 31.0029 32C31.273 32 31.5067 31.901 31.704 31.7031C31.9013 31.5052 32 31.2656 32 30.9844C32 30.7031 31.9065 30.4688 31.7196 30.2812ZM12.4635 23.0312C10.5524 23.0312 8.79195 22.5573 7.18208 21.6094C5.57222 20.6615 4.2999 19.3802 3.36514 17.7656C2.43038 16.151 1.963 14.3958 1.963 12.5C1.963 10.6042 2.43038 8.84896 3.36514 7.23438C4.2999 5.61979 5.57222 4.33854 7.18208 3.39062C8.79195 2.44271 10.5472 1.96875 12.4479 1.96875C14.3486 1.96875 16.1039 2.44271 17.7137 3.39062C19.3236 4.33854 20.5959 5.61979 21.5307 7.23438C22.4654 8.84896 22.9328 10.6042 22.9328 12.5C22.9328 13.3125 22.8393 14.1146 22.6524 14.9062C22.4654 15.6979 22.2006 16.4375 21.8578 17.125C21.5151 17.8125 21.1048 18.4635 20.6271 19.0781C20.1493 19.6927 19.6092 20.2396 19.0068 20.7188C18.4044 21.1979 17.7605 21.6094 17.075 21.9531C16.3895 22.2969 15.6521 22.5625 14.8627 22.75C14.0734 22.9375 13.2736 23.0312 12.4635 23.0312Z"/>
</svg>
